<svg xmlns="http://www.w3.org/2000/svg" width="28" height="28" viewBox="0 0 28 28"><path fill-rule="evenodd" d="M 14 0 A 14 14 0 0 0 0 14 A 14 14 0 0 0 14 28 A 14 14 0 0 0 28 14 A 14 14 0 0 0 14 0 z M 14 6.9863281 C 17.868 6.9863281 21.013672 10.130047 21.013672 13.998047 C 21.013672 17.866047 17.867 21.013672 14 21.013672 C 12.126 21.013672 10.366969 20.283984 9.0429688 18.958984 C 7.7169688 17.634984 6.9863281 15.874 6.9863281 14 C 6.9863281 10.132 10.133 6.9863281 14 6.9863281 z M 13.966797 12.005859 C 12.846797 12.005859 11.953125 12.897141 11.953125 13.994141 C 11.953125 15.089141 12.808094 15.96 13.871094 16 C 13.896094 15.999 13.920312 15.994141 13.945312 15.994141 C 13.974313 15.994141 14.000297 16 14.029297 16 C 15.095297 15.965 15.953125 15.092578 15.953125 14.017578 C 15.953125 12.897578 15.063797 12.005859 13.966797 12.005859 z M 13.871094 16.998047 C 12.473094 17.020047 11.158812 17.647125 10.257812 18.703125 C 11.317812 19.550125 12.623 20.013672 14 20.013672 C 15.383 20.013672 16.654875 19.539 17.671875 18.75 C 16.771875 17.667 15.448297 17.023047 14.029297 16.998047 C 14.007297 16.999047 13.986844 17.005859 13.964844 17.005859 L 13.941406 17.005859 C 13.917406 17.005859 13.895094 16.999047 13.871094 16.998047 z "/></svg>